<?xml version="1.0" standalone="no"?>
<!DOCTYPE svg PUBLIC "-//W3C//DTD SVG 20010904//EN"
 "http://www.w3.org/TR/2001/REC-SVG-20010904/DTD/svg10.dtd">
<svg version="1.0" xmlns="http://www.w3.org/2000/svg"
 width="512.000000pt" height="512.000000pt" viewBox="0 0 512.000000 512.000000"
 preserveAspectRatio="xMidYMid meet">

<g transform="translate(0.000000,512.000000) scale(0.100000,-0.100000)"
fill="#000000" stroke="none">
<path d="M185 4615 c-24 -24 -25 -28 -25 -182 1 -181 7 -217 59 -328 32 -69
36 -85 28 -115 -5 -19 -7 -107 -4 -195 l4 -160 81 -292 c44 -160 93 -316 107
-346 56 -113 159 -203 285 -247 36 -13 66 -24 67 -25 2 -1 14 -73 28 -161 28
-172 42 -227 85 -319 28 -59 29 -65 44 -395 l16 -335 -39 -386 -39 -385 -41
-82 c-47 -94 -50 -123 -16 -157 24 -25 26 -25 215 -25 185 0 192 1 213 23 20
19 32 78 105 517 45 272 87 542 93 600 6 58 13 112 16 120 3 9 31 -37 68 -110
l64 -125 0 -383 1 -382 -40 -80 c-46 -92 -49 -122 -15 -155 24 -25 26 -25 210
-25 188 0 216 5 234 38 5 10 28 241 51 513 l41 495 -29 117 -30 117 412 0 411
0 138 -138 137 -137 0 -373 0 -372 -40 -80 c-46 -92 -49 -122 -15 -155 24 -25
26 -25 215 -25 189 0 191 0 215 25 14 13 25 31 25 39 0 8 18 213 40 456 l41
442 -31 151 c-16 83 -30 154 -30 159 0 4 21 8 48 8 l47 0 104 -172 103 -173
38 -340 38 -340 -39 -77 c-45 -90 -48 -120 -14 -153 24 -25 26 -25 215 -25
189 0 191 0 215 25 l25 24 0 459 0 458 -38 191 -39 190 77 153 76 152 19 -48
c57 -153 186 -267 350 -309 90 -23 141 -20 171 10 l25 25 -3 487 -3 488 -32
67 c-43 91 -101 151 -187 193 -90 45 -154 51 -341 32 l-140 -14 -37 31 c-92
78 -224 137 -348 157 -54 8 -265 4 -916 -16 -466 -15 -871 -24 -899 -20 l-53
6 -4 112 c-3 83 -9 121 -22 147 -10 19 -117 135 -238 256 -256 258 -253 252
-201 357 53 106 63 162 63 340 0 154 -1 158 -25 182 -29 30 -73 32 -160 10
-75 -20 -145 -58 -200 -110 l-44 -40 -293 2 -293 2 -42 39 c-55 50 -124 87
-198 107 -87 22 -131 20 -160 -10z m248 -214 c27 -24 73 -99 65 -106 -2 -1
-19 -10 -38 -20 -19 -10 -52 -31 -72 -47 l-38 -30 -12 29 c-6 15 -13 77 -16
136 l-4 109 43 -22 c24 -12 57 -34 72 -49z m1005 -55 c-3 -50 -10 -104 -17
-119 l-11 -29 -38 30 c-21 17 -54 38 -75 48 -20 10 -37 23 -37 29 0 14 50 84
76 106 10 9 37 26 59 37 49 25 49 24 43 -102z m-755 -331 c34 -101 55 -149 70
-160 16 -11 49 -15 127 -15 78 0 111 4 127 15 15 11 36 59 70 161 l48 145 35
-6 c72 -14 138 -62 171 -127 10 -21 19 -41 19 -46 0 -4 -38 -20 -85 -36 -47
-15 -85 -33 -85 -40 0 -29 43 -136 54 -136 7 0 38 9 69 19 l57 20 0 -53 c0
-47 -42 -241 -54 -254 -3 -3 -34 14 -69 37 -35 22 -66 41 -70 41 -6 0 -87
-115 -87 -124 0 -3 41 -33 90 -66 79 -53 90 -64 84 -83 -3 -12 -8 -24 -10 -25
-1 -2 -33 8 -69 23 -183 73 -407 72 -592 -2 -35 -14 -65 -24 -67 -22 -2 2 -7
14 -10 26 -6 19 5 30 84 83 49 33 90 63 90 66 0 9 -81 124 -87 124 -4 0 -35
-19 -70 -41 -35 -23 -66 -40 -69 -37 -12 13 -54 207 -54 254 l0 53 57 -20 c31
-10 62 -19 69 -19 11 0 54 107 54 136 0 7 -38 25 -85 40 -47 16 -85 32 -85 37
0 16 33 73 59 100 36 39 104 73 151 76 11 1 29 -40 63 -144z m811 -614 l27
-28 -50 -198 c-28 -108 -63 -225 -79 -259 -58 -122 -146 -203 -314 -287 -54
-27 -100 -49 -102 -49 -4 0 -19 119 -18 136 1 4 32 17 69 29 90 29 162 75 221
141 70 78 95 135 154 351 29 106 56 193 59 193 3 0 18 -13 33 -29z m256 -261
c0 -61 -45 -342 -62 -388 -27 -75 -99 -183 -150 -227 -39 -33 -407 -268 -441
-281 -12 -4 -24 13 -51 69 -20 41 -36 81 -36 88 0 9 43 36 102 64 294 143 417
287 489 570 17 66 35 137 40 157 l9 37 50 -37 c28 -20 50 -44 50 -52z m2175
-66 c28 -9 54 -20 59 -25 5 -4 -34 -107 -87 -231 -132 -311 -129 -297 -134
-535 l-5 -203 81 0 81 0 0 163 c0 108 5 183 15 225 15 63 178 457 197 477 21
22 115 -113 154 -220 l22 -62 -139 -139 c-76 -76 -139 -143 -139 -149 0 -13
91 -105 104 -105 6 0 50 39 99 88 l88 87 -6 -40 c-15 -90 -41 -158 -137 -349
l-101 -201 25 -127 25 -128 -106 0 -106 0 -87 148 c-72 120 -103 162 -173 232
-111 109 -127 140 -133 253 l-4 87 -81 0 -80 0 5 -103 c5 -113 29 -182 89
-258 l31 -39 -201 0 c-111 0 -201 2 -201 5 0 2 33 93 74 202 129 346 119 294
125 648 l6 310 118 3 117 3 0 -226 0 -225 80 0 80 0 0 231 0 232 98 -6 c53 -3
120 -13 147 -23z m-1907 -15 l62 -11 0 -122 c0 -207 -30 -296 -152 -461 -39
-53 -68 -98 -66 -101 3 -2 32 -24 64 -48 l58 -44 77 104 c138 186 169 274 176
512 l5 162 27 0 c14 0 50 3 79 7 l54 6 -4 -304 c-5 -365 4 -331 -166 -631
l-117 -207 -57 -1 -58 0 0 120 0 120 -80 0 -80 0 0 -167 c0 -132 4 -184 19
-240 l19 -73 -94 0 -94 0 -48 98 c-36 71 -59 138 -87 250 -31 126 -40 152 -54
148 -9 -3 -36 -10 -61 -16 -86 -21 -80 -14 -63 -76 8 -31 13 -60 11 -65 -4
-11 -173 85 -172 97 0 5 83 61 185 124 226 140 330 236 396 365 54 105 68 156
88 316 21 166 20 163 48 155 12 -3 50 -11 85 -17z m1102 -243 c0 -145 -4 -288
-10 -317 -5 -30 -54 -172 -107 -316 l-98 -263 -102 0 -102 0 55 92 c93 158
124 266 124 441 l0 107 -80 0 -80 0 0 -97 c0 -111 -19 -211 -50 -274 -12 -24
-52 -95 -88 -156 l-67 -113 -108 0 c-100 0 -107 1 -98 18 5 9 50 89 101 177
50 88 103 196 117 240 26 78 27 86 31 393 l4 312 26 0 c15 0 51 3 80 6 l52 7
0 -177 0 -176 80 0 80 0 0 174 0 175 43 4 c23 2 77 4 120 5 l77 2 0 -264z
m-1900 -895 l95 -58 -4 -39 c-1 -21 -5 -41 -7 -43 -2 -2 -47 7 -101 21 l-98
24 -5 86 c-4 75 -3 85 10 77 8 -6 58 -36 110 -68z m2167 -226 c21 -100 24 -95
-70 -95 l-82 0 -80 80 -80 81 150 -3 149 -3 13 -60z m-2172 -61 c39 -9 71 -18
73 -20 2 -1 -2 -39 -9 -84 -7 -52 -16 -80 -23 -77 -6 2 -36 12 -66 22 -30 9
-58 20 -61 24 -4 3 -9 41 -11 84 -4 68 -3 77 11 73 9 -3 48 -13 86 -22z m701
-151 c-3 -21 -6 -57 -6 -80 l0 -43 -75 0 -75 0 0 80 0 80 81 0 82 0 -7 -37z
m1518 -110 c-8 -97 -4 -93 -84 -93 l-70 0 0 80 0 80 80 0 79 0 -5 -67z m726
-13 l0 -80 -70 0 -69 0 -5 33 c-3 17 -8 53 -11 80 l-6 47 80 0 81 0 0 -80z
m-2981 -51 c58 -20 62 -23 57 -48 -3 -14 -17 -96 -31 -181 -36 -222 -26 -200
-90 -200 -46 0 -55 3 -55 18 0 10 9 105 20 212 11 107 20 200 20 207 0 17 5
17 79 -8z m708 -176 c-4 -38 -9 -110 -13 -160 l-7 -93 -53 0 -54 0 0 160 0
160 66 0 67 0 -6 -67z m1520 -55 c-4 -24 -9 -78 -13 -120 l-6 -78 -54 0 -54 0
0 120 0 120 66 0 66 0 -5 -42z m753 -78 l0 -120 -49 0 -48 0 -12 100 c-17 151
-21 140 49 140 l60 0 0 -120z"/>
<path d="M560 3680 l0 -80 80 0 80 0 0 80 0 80 -80 0 -80 0 0 -80z"/>
<path d="M1040 3680 l0 -80 80 0 80 0 0 80 0 80 -80 0 -80 0 0 -80z"/>
</g>
</svg>
