<?xml version="1.0" encoding="UTF-8"?>
<!DOCTYPE svg PUBLIC "-//W3C//DTD SVG 1.1//EN" "http://www.w3.org/Graphics/SVG/1.1/DTD/svg11.dtd">
<svg xmlns="http://www.w3.org/2000/svg" version="1.1" width="512px" height="512px" style="shape-rendering:geometricPrecision; text-rendering:geometricPrecision; image-rendering:optimizeQuality; fill-rule:evenodd; clip-rule:evenodd" xmlns:xlink="http://www.w3.org/1999/xlink">
<g><path style="opacity:0.995" fill="#fecd1a" d="M 236.5,75.5 C 314.63,71.141 373.797,102.141 414,168.5C 437.374,213.595 442.041,260.595 428,309.5C 402.059,382.101 350.893,423.934 274.5,435C 196.341,439.843 137.174,409.01 97,342.5C 73.6259,297.405 68.9592,250.405 83,201.5C 109.118,128.874 160.285,86.8738 236.5,75.5 Z"/></g>
<g><path style="opacity:1" fill="#fcf5dd" d="M 293.5,332.5 C 291.5,332.5 289.5,332.5 287.5,332.5C 287.5,339.5 287.5,346.5 287.5,353.5C 284.187,365.652 276.854,368.819 265.5,363C 263.106,361.048 261.606,358.548 261,355.5C 260.5,347.841 260.334,340.174 260.5,332.5C 252.167,332.5 243.833,332.5 235.5,332.5C 235.666,340.174 235.5,347.841 235,355.5C 231.748,364.044 225.581,367.211 216.5,365C 211.728,362.62 209.061,358.787 208.5,353.5C 208.5,346.5 208.5,339.5 208.5,332.5C 201.833,332.5 195.167,332.5 188.5,332.5C 176.804,329.441 172.637,322.108 176,310.5C 178.222,306.612 181.388,303.779 185.5,302C 191.157,301.501 196.824,301.334 202.5,301.5C 202.5,272.167 202.5,242.833 202.5,213.5C 195.716,213.92 189.05,213.42 182.5,212C 171.635,202.258 171.968,192.925 183.5,184C 191.749,182.594 200.083,182.094 208.5,182.5C 208.334,174.16 208.5,165.827 209,157.5C 214.358,149.068 221.524,147.235 230.5,152C 232.617,153.731 234.117,155.898 235,158.5C 235.5,166.493 235.666,174.493 235.5,182.5C 243.833,182.5 252.167,182.5 260.5,182.5C 260.334,174.493 260.5,166.493 261,158.5C 265.417,149.718 272.25,147.218 281.5,151C 283.709,152.873 285.542,155.04 287,157.5C 287.5,165.827 287.666,174.16 287.5,182.5C 311.575,182.444 327.409,193.778 335,216.5C 338.422,231.74 335.255,245.407 325.5,257.5C 341.607,280.941 339.607,302.775 319.5,323C 311.776,328.693 303.109,331.86 293.5,332.5 Z"/></g>
<g><path style="opacity:1" fill="#fece24" d="M 233.5,213.5 C 251.836,213.333 270.17,213.5 288.5,214C 301.212,218.243 304.212,226.076 297.5,237.5C 295.507,239.499 293.173,240.999 290.5,242C 271.503,242.5 252.503,242.667 233.5,242.5C 233.5,232.833 233.5,223.167 233.5,213.5 Z"/></g>
<g><path style="opacity:1" fill="#fecd1c" d="M 233.5,273.5 C 252.503,273.333 271.503,273.5 290.5,274C 297.276,275.944 300.942,280.444 301.5,287.5C 300.786,294.436 297.12,298.936 290.5,301C 271.503,301.5 252.503,301.667 233.5,301.5C 233.5,292.167 233.5,282.833 233.5,273.5 Z"/></g>
<g><path style="opacity:1" fill="#fdd958" d="M 188.5,332.5 C 195.167,332.5 201.833,332.5 208.5,332.5C 208.5,339.5 208.5,346.5 208.5,353.5C 207.509,347.021 207.176,340.354 207.5,333.5C 200.978,333.823 194.645,333.49 188.5,332.5 Z"/></g>
<g><path style="opacity:1" fill="#fddd6b" d="M 293.5,332.5 C 292.081,333.451 290.415,333.784 288.5,333.5C 288.824,340.354 288.491,347.021 287.5,353.5C 287.5,346.5 287.5,339.5 287.5,332.5C 289.5,332.5 291.5,332.5 293.5,332.5 Z"/></g>
</svg>
