<?xml version="1.0" encoding="UTF-8"?>
<!DOCTYPE svg PUBLIC "-//W3C//DTD SVG 1.1//EN" "http://www.w3.org/Graphics/SVG/1.1/DTD/svg11.dtd">
<svg xmlns="http://www.w3.org/2000/svg" version="1.1" width="512px" height="512px" style="shape-rendering:geometricPrecision; text-rendering:geometricPrecision; image-rendering:optimizeQuality; fill-rule:evenodd; clip-rule:evenodd" xmlns:xlink="http://www.w3.org/1999/xlink">
<g><path style="opacity:0.988" fill="#000000" d="M 234.5,31.5 C 312.835,26.7692 377.669,53.7692 429,112.5C 477.656,175.451 491.323,245.451 470,322.5C 442.521,401.646 388.354,452.146 307.5,474C 221.033,491.188 147.533,468.021 87,404.5C 33.6236,339.624 18.6236,266.624 42,185.5C 71.3718,104.23 128.205,54.0629 212.5,35C 219.983,33.8618 227.317,32.6952 234.5,31.5 Z M 250.5,112.5 C 258.126,111.066 264.292,113.399 269,119.5C 296.246,157.658 323.246,195.991 350,234.5C 352.037,243.591 348.871,250.091 340.5,254C 313.833,264.667 287.167,275.333 260.5,286C 257.167,286.667 253.833,286.667 250.5,286C 223.833,275.333 197.167,264.667 170.5,254C 162.129,250.091 158.963,243.591 161,234.5C 187.754,195.991 214.754,157.658 242,119.5C 244.441,116.546 247.275,114.213 250.5,112.5 Z M 157.5,255.5 C 160.216,255.678 162.883,256.178 165.5,257C 195.382,272.108 225.382,286.941 255.5,301.5C 285.618,286.941 315.618,272.108 345.5,257C 357.809,254.142 364.809,258.975 366.5,271.5C 366.705,274.795 365.872,277.795 364,280.5C 330.833,319 297.667,357.5 264.5,396C 255.795,400.414 248.295,398.914 242,391.5C 210.333,354.5 178.667,317.5 147,280.5C 141.482,268.193 144.982,259.86 157.5,255.5 Z"/></g>
<g><path style="opacity:0.965" fill="#000000" d="M 254.5,154.5 C 255.496,154.414 256.329,154.748 257,155.5C 275.167,181 293.333,206.5 311.5,232C 292.941,239.78 274.275,247.28 255.5,254.5C 236.725,247.28 218.059,239.78 199.5,232C 218.053,206.287 236.386,180.454 254.5,154.5 Z"/></g>
<g><path style="opacity:0.861" fill="#000000" d="M 222.5,321.5 C 222.56,320.957 222.893,320.624 223.5,320.5C 233.738,326.289 244.404,330.955 255.5,334.5C 257.923,334.406 260.256,333.906 262.5,333C 271.04,328.392 279.707,324.392 288.5,321C 277.687,333.981 266.687,346.814 255.5,359.5C 244.448,346.788 233.448,334.122 222.5,321.5 Z"/></g>
</svg>
