<?xml version="1.0" encoding="UTF-8"?>
<!DOCTYPE svg PUBLIC "-//W3C//DTD SVG 1.1//EN" "http://www.w3.org/Graphics/SVG/1.1/DTD/svg11.dtd">
<svg xmlns="http://www.w3.org/2000/svg" version="1.1" width="512px" height="512px" style="shape-rendering:geometricPrecision; text-rendering:geometricPrecision; image-rendering:optimizeQuality; fill-rule:evenodd; clip-rule:evenodd" xmlns:xlink="http://www.w3.org/1999/xlink">
<g><path style="opacity:1" fill="#fe6601" d="M 232.5,-0.5 C 247.833,-0.5 263.167,-0.5 278.5,-0.5C 368.144,10.3879 435.644,54.7213 481,132.5C 497.695,163.971 507.861,197.304 511.5,232.5C 511.5,247.833 511.5,263.167 511.5,278.5C 509.467,298.332 505.133,317.666 498.5,336.5C 472.833,336.5 447.167,336.5 421.5,336.5C 421.833,264.998 421.499,193.665 420.5,122.5C 365.215,176.451 310.215,230.784 255.5,285.5C 200.785,230.784 145.785,176.451 90.5,122.5C 89.5008,193.665 89.1675,264.998 89.5,336.5C 63.8333,336.5 38.1667,336.5 12.5,336.5C 5.86683,317.666 1.53349,298.332 -0.5,278.5C -0.5,263.167 -0.5,247.833 -0.5,232.5C 10.3875,142.857 54.7208,75.3573 132.5,30C 163.971,13.3053 197.304,3.1386 232.5,-0.5 Z"/></g>
<g><path style="opacity:1" fill="#fb8230" d="M 90.5,122.5 C 90.5,194.167 90.5,265.833 90.5,337.5C 64.5,337.5 38.5,337.5 12.5,337.5C 12.5,337.167 12.5,336.833 12.5,336.5C 38.1667,336.5 63.8333,336.5 89.5,336.5C 89.1675,264.998 89.5008,193.665 90.5,122.5 Z"/></g>
<g><path style="opacity:1" fill="#fb8231" d="M 420.5,122.5 C 421.499,193.665 421.833,264.998 421.5,336.5C 447.167,336.5 472.833,336.5 498.5,336.5C 498.5,336.833 498.5,337.167 498.5,337.5C 472.5,337.5 446.5,337.5 420.5,337.5C 420.5,265.833 420.5,194.167 420.5,122.5 Z"/></g>
<g><path style="opacity:0.999" fill="#efeeea" d="M 90.5,122.5 C 145.785,176.451 200.785,230.784 255.5,285.5C 310.215,230.784 365.215,176.451 420.5,122.5C 420.5,194.167 420.5,265.833 420.5,337.5C 446.5,337.5 472.5,337.5 498.5,337.5C 492.239,357.019 483.573,375.353 472.5,392.5C 436.5,392.5 400.5,392.5 364.5,392.5C 364.833,347.162 364.5,301.828 363.5,256.5C 362.893,256.624 362.56,256.957 362.5,257.5C 327.188,293.479 291.521,329.146 255.5,364.5C 219.479,329.146 183.812,293.479 148.5,257.5C 148.44,256.957 148.107,256.624 147.5,256.5C 146.5,301.828 146.167,347.162 146.5,392.5C 110.5,392.5 74.5,392.5 38.5,392.5C 27.4274,375.353 18.7607,357.019 12.5,337.5C 38.5,337.5 64.5,337.5 90.5,337.5C 90.5,265.833 90.5,194.167 90.5,122.5 Z"/></g>
<g><path style="opacity:1" fill="#cecdca" d="M 148.5,257.5 C 147.833,302.5 147.167,347.5 146.5,392.5C 146.167,347.162 146.5,301.828 147.5,256.5C 148.107,256.624 148.44,256.957 148.5,257.5 Z"/></g>
<g><path style="opacity:1" fill="#cfcecb" d="M 362.5,257.5 C 362.56,256.957 362.893,256.624 363.5,256.5C 364.5,301.828 364.833,347.162 364.5,392.5C 363.833,347.5 363.167,302.5 362.5,257.5 Z"/></g>
<g><path style="opacity:1" fill="#4c4c4c" d="M 148.5,257.5 C 183.812,293.479 219.479,329.146 255.5,364.5C 291.521,329.146 327.188,293.479 362.5,257.5C 363.167,302.5 363.833,347.5 364.5,392.5C 400.5,392.5 436.5,392.5 472.5,392.5C 426.492,462.189 361.825,501.856 278.5,511.5C 263.167,511.5 247.833,511.5 232.5,511.5C 149.175,501.856 84.5085,462.189 38.5,392.5C 74.5,392.5 110.5,392.5 146.5,392.5C 147.167,347.5 147.833,302.5 148.5,257.5 Z"/></g>
</svg>
